<svg width="0" height="0" class="hidden">
    <symbol fill="none" xmlns="http://www.w3.org/2000/svg" viewBox="0 0 18 18" id="aiPicture">
        <path d="M12 6H6V12H12V6Z" fill="currentColor"/>
        <path fill-rule="evenodd" clip-rule="evenodd" d="M6 1C6 0.447715 6.44772 0 7 0C7.55228 0 8 0.447715 8 1V2H10V1C10 0.447715 10.4477 0 11 0C11.5523 0 12 0.447715 12 1V2H14C15.1046 2 16 2.89543 16 4V6H17C17.5523 6 18 6.44772 18 7C18 7.55228 17.5523 8 17 8H16V10H17C17.5523 10 18 10.4477 18 11C18 11.5523 17.5523 12 17 12H16V14C16 15.1046 15.1046 16 14 16H12V17C12 17.5523 11.5523 18 11 18C10.4477 18 10 17.5523 10 17V16H8V17C8 17.5523 7.55228 18 7 18C6.44772 18 6 17.5523 6 17V16H4C2.89543 16 2 15.1046 2 14V12H1C0.447715 12 0 11.5523 0 11C0 10.4477 0.447715 10 1 10H2V8H1C0.447715 8 0 7.55228 0 7C0 6.44772 0.447715 6 1 6H2V4C2 2.89543 2.89543 2 4 2H6V1ZM4 4H14V14H4V4Z" fill="currentColor"/>
    </symbol>

    <symbol id="sendMessage" viewBox="0 0 16 16" xmlns="http://www.w3.org/2000/svg">
        <path d="M8.89444 0.552786C8.72505 0.214002 8.37878 0 8.00001 0C7.62124 0 7.27498 0.214002 7.10558 0.552786L0.105584 14.5528C-0.0717665 14.9075 -0.0227602 15.3335 0.230502 15.6386C0.483764 15.9438 0.893423 16.0705 1.27473 15.9615L6.27472 14.533C6.70402 14.4103 7 14.0179 7 13.5714V9C7 8.44771 7.44772 8 8 8C8.55229 8 9 8.44771 9 9V13.5714C9 14.0179 9.29598 14.4103 9.72528 14.533L14.7253 15.9615C15.1066 16.0705 15.5163 15.9438 15.7695 15.6386C16.0228 15.3335 16.0718 14.9075 15.8944 14.5528L8.89444 0.552786Z" fill="currentColor"/>
    </symbol>

    <svg id="userPicture" viewBox="0 0 24 24" fill="none" xmlns="http://www.w3.org/2000/svg">
        <path d="M16 7C16 9.20914 14.2091 11 12 11C9.79086 11 8 9.20914 8 7C8 4.79086 9.79086 3 12 3C14.2091 3 16 4.79086 16 7Z" stroke="currentColor" stroke-width="2" stroke-linecap="round" stroke-linejoin="round"/>
        <path d="M12 14C8.13401 14 5 17.134 5 21H19C19 17.134 15.866 14 12 14Z" stroke="currentColor" stroke-width="2" stroke-linecap="round" stroke-linejoin="round"/>
    </svg>
</svg>
